<?xml version="1.0" encoding="UTF-8"?>
<!DOCTYPE svg PUBLIC "-//W3C//DTD SVG 1.1//EN" "http://www.w3.org/Graphics/SVG/1.1/DTD/svg11.dtd">
<svg version="1.1" xmlns="http://www.w3.org/2000/svg" xmlns:xlink="http://www.w3.org/1999/xlink" x="0" y="0" width="30" height="10" viewBox="0, 0, 30, 10">


<style type="text/css" >
      
      <![CDATA[
    

        path.bolge1 {
        fill: #accef1;
          stroke: #accef1;
        }
        path.bolge2 {
          fill: #4f9dbc;
          stroke: #4f9dbc;
        }
 


   
      ]]>
    </style>

  <g id="Image">
    <path class="bolge1"  d="M3.526,3.291 L3.59,3.282 L3.716,3.265 L3.842,3.25 L3.966,3.235 L4.09,3.222 L4.212,3.211 L4.334,3.2 L4.455,3.191 L4.574,3.183 L4.693,3.177 L4.811,3.171 L4.927,3.167 L5.043,3.164 L5.158,3.162 L5.272,3.162 L5.386,3.162 L5.498,3.164 L5.61,3.166 L5.72,3.17 L5.83,3.175 L5.94,3.18 L6.048,3.187 L6.155,3.195 L6.262,3.204 L6.421,3.219 L6.631,3.242 L6.837,3.27 L7.041,3.3 L7.242,3.334 L7.441,3.371 L7.638,3.412 L7.832,3.456 L8.024,3.502 L8.214,3.551 L8.403,3.602 L8.589,3.656 L8.774,3.713 L8.957,3.771 L9.139,3.832 L9.32,3.894 L9.499,3.958 L9.677,4.024 L9.854,4.091 L10.03,4.16 L10.293,4.265 L10.641,4.409 L10.988,4.556 L11.334,4.705 L11.68,4.854 L12.026,5.004 L12.375,5.152 L12.638,5.261 L12.815,5.333 L12.992,5.404 L13.171,5.474 L13.351,5.543 L13.532,5.61 L13.714,5.676 L13.898,5.74 L14.083,5.802 L14.27,5.863 L14.459,5.921 L14.65,5.978 L14.843,6.032 L15.039,6.083 L15.236,6.132 L15.436,6.178 L15.638,6.222 L15.843,6.262 L15.946,6.281 L15.946,6.281 C15.946,6.281 15.946,6.281 15.946,6.281 L15.946,6.281 L16.032,6.296 L16.203,6.327 L16.371,6.357 L16.538,6.387 L16.703,6.416 L16.866,6.445 L17.027,6.474 L17.186,6.502 L17.344,6.53 L17.5,6.557 L17.654,6.584 L17.806,6.611 L17.957,6.637 L18.105,6.663 L18.253,6.688 L18.398,6.713 L18.542,6.737 L18.684,6.76 L18.825,6.784 L18.964,6.806 L19.101,6.829 L19.237,6.85 L19.371,6.871 L19.504,6.892 L19.635,6.912 L19.764,6.931 L19.892,6.95 L20.019,6.969 L20.144,6.986 L20.268,7.003 L20.39,7.02 L20.511,7.036 L20.631,7.051 L20.749,7.066 L20.865,7.08 L20.981,7.093 L21.095,7.106 L21.207,7.118 L21.319,7.129 L21.429,7.14 L21.538,7.149 L21.646,7.159 L21.752,7.167 L21.857,7.175 L21.961,7.182 L22.064,7.188 L22.165,7.194 L22.266,7.199 L22.365,7.203 L22.463,7.206 L22.56,7.208 L22.656,7.21 L22.751,7.211 L22.845,7.211 L22.938,7.21 L23.03,7.208 L23.121,7.206 L23.21,7.202 L23.299,7.198 L23.387,7.193 L23.474,7.187 L23.56,7.18 L23.645,7.172 L23.729,7.164 L23.813,7.154 L23.895,7.144 L23.977,7.132 L24.058,7.12 L24.138,7.106 L24.217,7.092 L24.295,7.077 L24.373,7.061 L24.488,7.035 L24.639,6.996 L24.787,6.953 L24.932,6.907 L25.076,6.856 L25.216,6.8 L25.355,6.741 L25.491,6.677 L25.626,6.608 L25.758,6.535 L25.889,6.457 L26.018,6.374 L26.146,6.287 L26.273,6.195 L26.398,6.097 L26.522,5.995 L26.645,5.888 L26.768,5.775 L26.89,5.657 L27.011,5.534 L27.132,5.405 L27.253,5.271 L27.433,5.06 L27.614,4.836 L27.735,4.679 L27.856,4.517 L27.977,4.348 L28.038,4.262 L28.038,4.262 C28.095,4.182 28.166,3.666 28.197,3.109 C28.228,2.552 28.207,2.166 28.15,2.246 L28.09,2.331 L27.969,2.498 L27.849,2.659 L27.73,2.815 L27.551,3.037 L27.371,3.247 L27.252,3.38 L27.132,3.507 L27.012,3.63 L26.891,3.746 L26.769,3.858 L26.647,3.965 L26.524,4.066 L26.399,4.163 L26.274,4.255 L26.147,4.342 L26.018,4.424 L25.888,4.501 L25.756,4.574 L25.623,4.642 L25.487,4.706 L25.349,4.765 L25.209,4.82 L25.067,4.871 L24.922,4.917 L24.774,4.96 L24.624,4.998 L24.509,5.024 L24.432,5.041 L24.354,5.056 L24.275,5.07 L24.195,5.083 L24.114,5.096 L24.033,5.107 L23.951,5.118 L23.868,5.127 L23.784,5.136 L23.699,5.144 L23.613,5.15 L23.526,5.156 L23.439,5.161 L23.35,5.166 L23.26,5.169 L23.17,5.172 L23.078,5.173 L22.985,5.174 L22.892,5.174 L22.797,5.173 L22.701,5.172 L22.604,5.169 L22.506,5.166 L22.407,5.162 L22.306,5.157 L22.205,5.152 L22.102,5.145 L21.998,5.138 L21.893,5.13 L21.787,5.122 L21.68,5.113 L21.571,5.103 L21.461,5.092 L21.349,5.081 L21.237,5.069 L21.123,5.056 L21.008,5.043 L20.891,5.029 L20.773,5.015 L20.653,4.999 L20.533,4.983 L20.41,4.967 L20.287,4.95 L20.162,4.932 L20.035,4.914 L19.907,4.895 L19.777,4.875 L19.646,4.855 L19.514,4.835 L19.379,4.814 L19.244,4.792 L19.106,4.77 L18.968,4.747 L18.827,4.724 L18.685,4.7 L18.541,4.676 L18.396,4.651 L18.248,4.626 L18.1,4.601 L17.949,4.574 L17.797,4.548 L17.643,4.521 L17.487,4.494 L17.329,4.466 L17.17,4.437 L17.009,4.409 L16.846,4.38 L16.681,4.35 L16.514,4.321 L16.346,4.29 L16.175,4.26 L16.089,4.244 L16.089,4.244 L15.986,4.225 L15.782,4.185 L15.58,4.142 L15.38,4.096 L15.183,4.047 L14.988,3.996 L14.795,3.942 L14.605,3.886 L14.416,3.827 L14.229,3.767 L14.044,3.704 L13.86,3.64 L13.678,3.574 L13.497,3.507 L13.317,3.439 L13.139,3.369 L12.962,3.298 L12.785,3.226 L12.522,3.117 L12.174,2.969 L11.827,2.819 L11.481,2.67 L11.135,2.521 L10.788,2.374 L10.44,2.23 L10.177,2.125 L10,2.056 L9.823,1.988 L9.645,1.923 L9.466,1.858 L9.285,1.796 L9.103,1.735 L8.919,1.677 L8.734,1.62 L8.547,1.566 L8.359,1.515 L8.168,1.465 L7.976,1.419 L7.781,1.376 L7.584,1.335 L7.385,1.298 L7.184,1.264 L6.979,1.233 L6.773,1.206 L6.563,1.182 L6.404,1.167 L6.297,1.158 L6.189,1.151 L6.081,1.144 L5.971,1.138 L5.861,1.133 L5.75,1.13 L5.638,1.127 L5.526,1.125 L5.412,1.125 L5.298,1.126 L5.183,1.128 L5.067,1.131 L4.95,1.135 L4.832,1.14 L4.713,1.147 L4.593,1.155 L4.473,1.164 L4.351,1.174 L4.228,1.186 L4.105,1.199 L3.98,1.213 L3.854,1.229 L3.727,1.246 L3.663,1.255 C3.611,1.262 3.538,1.724 3.5,2.286 C3.462,2.849 3.474,3.299 3.526,3.291 L3.526,3.291" fill="#000000"/>
    <path class="bolge2"  d="M2.681,5.518 L2.745,5.509 L2.872,5.492 L2.997,5.476 L3.122,5.462 L3.245,5.449 L3.368,5.438 L3.489,5.427 L3.61,5.418 L3.73,5.41 L3.848,5.404 L3.966,5.398 L4.083,5.394 L4.199,5.391 L4.314,5.389 L4.428,5.388 L4.541,5.389 L4.654,5.39 L4.765,5.393 L4.876,5.397 L4.986,5.401 L5.095,5.407 L5.203,5.414 L5.311,5.422 L5.418,5.431 L5.577,5.446 L5.786,5.469 L5.993,5.496 L6.196,5.527 L6.398,5.561 L6.597,5.598 L6.793,5.639 L6.988,5.682 L7.18,5.728 L7.37,5.777 L7.558,5.829 L7.745,5.883 L7.93,5.939 L8.113,5.998 L8.295,6.058 L8.475,6.121 L8.654,6.185 L8.832,6.251 L9.01,6.318 L9.186,6.387 L9.449,6.492 L9.797,6.636 L10.143,6.783 L10.489,6.932 L10.835,7.081 L11.182,7.231 L11.531,7.379 L11.794,7.488 L11.97,7.56 L12.148,7.631 L12.326,7.701 L12.506,7.77 L12.687,7.837 L12.869,7.903 L13.053,7.967 L13.239,8.029 L13.426,8.09 L13.615,8.148 L13.806,8.204 L13.999,8.259 L14.194,8.31 L14.391,8.359 L14.591,8.405 L14.793,8.448 L14.998,8.489 L15.102,8.508 L15.102,8.508 C15.102,8.508 15.102,8.508 15.102,8.508 L15.102,8.508 L15.188,8.523 L15.358,8.554 L15.527,8.584 L15.693,8.614 L15.858,8.643 L16.021,8.672 L16.182,8.701 L16.342,8.729 L16.499,8.757 L16.655,8.784 L16.809,8.811 L16.961,8.838 L17.112,8.864 L17.261,8.89 L17.408,8.915 L17.553,8.939 L17.697,8.964 L17.84,8.987 L17.98,9.011 L18.119,9.033 L18.256,9.055 L18.392,9.077 L18.526,9.098 L18.659,9.119 L18.79,9.139 L18.92,9.158 L19.048,9.177 L19.174,9.196 L19.3,9.213 L19.423,9.23 L19.546,9.247 L19.667,9.263 L19.786,9.278 L19.904,9.293 L20.021,9.307 L20.136,9.32 L20.25,9.332 L20.363,9.345 L20.474,9.356 L20.584,9.366 L20.693,9.376 L20.801,9.386 L20.907,9.394 L21.013,9.402 L21.116,9.409 L21.219,9.415 L21.321,9.421 L21.421,9.425 L21.521,9.429 L21.619,9.433 L21.716,9.435 L21.812,9.437 L21.907,9.437 L22.001,9.437 L22.093,9.437 L22.185,9.435 L22.276,9.433 L22.366,9.429 L22.455,9.425 L22.543,9.42 L22.629,9.414 L22.715,9.407 L22.801,9.399 L22.885,9.391 L22.968,9.381 L23.051,9.371 L23.132,9.359 L23.213,9.347 L23.293,9.333 L23.372,9.319 L23.451,9.304 L23.528,9.287 L23.643,9.261 L23.794,9.223 L23.942,9.18 L24.088,9.134 L24.231,9.083 L24.372,9.027 L24.51,8.968 L24.647,8.904 L24.781,8.835 L24.914,8.762 L25.044,8.684 L25.174,8.601 L25.301,8.514 L25.428,8.421 L25.553,8.324 L25.678,8.222 L25.801,8.114 L25.923,8.002 L26.045,7.884 L26.167,7.761 L26.287,7.632 L26.408,7.498 L26.588,7.287 L26.769,7.063 L26.89,6.906 L27.011,6.744 L27.133,6.575 L27.194,6.489 L27.194,6.489 C27.25,6.409 27.321,5.893 27.352,5.336 C27.383,4.779 27.362,4.393 27.306,4.473 L27.246,4.558 L27.125,4.725 L27.005,4.886 L26.885,5.041 L26.706,5.264 L26.527,5.474 L26.407,5.607 L26.287,5.734 L26.167,5.856 L26.046,5.973 L25.925,6.085 L25.802,6.192 L25.679,6.293 L25.555,6.39 L25.429,6.482 L25.302,6.568 L25.174,6.65 L25.044,6.728 L24.912,6.801 L24.778,6.869 L24.643,6.933 L24.505,6.992 L24.365,7.047 L24.222,7.098 L24.077,7.144 L23.93,7.187 L23.779,7.225 L23.665,7.251 L23.587,7.267 L23.509,7.283 L23.43,7.297 L23.35,7.31 L23.27,7.323 L23.188,7.334 L23.106,7.344 L23.023,7.354 L22.939,7.363 L22.854,7.37 L22.768,7.377 L22.682,7.383 L22.594,7.388 L22.505,7.392 L22.416,7.396 L22.325,7.398 L22.233,7.4 L22.141,7.401 L22.047,7.401 L21.952,7.4 L21.856,7.398 L21.759,7.396 L21.661,7.393 L21.562,7.389 L21.462,7.384 L21.36,7.378 L21.258,7.372 L21.154,7.365 L21.049,7.357 L20.943,7.349 L20.835,7.34 L20.726,7.33 L20.616,7.319 L20.505,7.308 L20.392,7.296 L20.278,7.283 L20.163,7.27 L20.046,7.256 L19.928,7.241 L19.809,7.226 L19.688,7.21 L19.566,7.194 L19.442,7.177 L19.317,7.159 L19.19,7.141 L19.062,7.122 L18.933,7.102 L18.802,7.082 L18.669,7.062 L18.535,7.041 L18.399,7.019 L18.262,6.997 L18.123,6.974 L17.982,6.951 L17.84,6.927 L17.696,6.903 L17.551,6.878 L17.404,6.853 L17.255,6.827 L17.104,6.801 L16.952,6.775 L16.798,6.748 L16.642,6.72 L16.485,6.693 L16.326,6.664 L16.164,6.636 L16.001,6.607 L15.837,6.577 L15.67,6.547 L15.501,6.517 L15.331,6.487 L15.245,6.471 L15.245,6.471 L15.142,6.452 L14.937,6.412 L14.735,6.369 L14.536,6.323 L14.338,6.274 L14.144,6.222 L13.951,6.169 L13.76,6.112 L13.571,6.054 L13.384,5.993 L13.199,5.931 L13.015,5.867 L12.833,5.801 L12.652,5.734 L12.473,5.665 L12.294,5.596 L12.117,5.525 L11.941,5.453 L11.678,5.343 L11.329,5.195 L10.982,5.046 L10.636,4.897 L10.29,4.748 L9.944,4.601 L9.595,4.457 L9.332,4.352 L9.156,4.283 L8.979,4.215 L8.8,4.149 L8.621,4.085 L8.44,4.023 L8.258,3.962 L8.075,3.903 L7.89,3.847 L7.703,3.793 L7.514,3.741 L7.324,3.692 L7.131,3.646 L6.937,3.602 L6.74,3.562 L6.541,3.525 L6.339,3.491 L6.135,3.46 L5.928,3.433 L5.718,3.409 L5.559,3.394 L5.452,3.385 L5.345,3.378 L5.236,3.371 L5.127,3.365 L5.017,3.36 L4.906,3.356 L4.794,3.354 L4.681,3.352 L4.568,3.352 L4.454,3.352 L4.338,3.354 L4.222,3.357 L4.105,3.361 L3.987,3.367 L3.869,3.374 L3.749,3.382 L3.628,3.391 L3.506,3.401 L3.384,3.413 L3.26,3.426 L3.135,3.44 L3.009,3.455 L2.883,3.472 L2.819,3.481 C2.767,3.489 2.694,3.951 2.656,4.513 C2.618,5.076 2.629,5.526 2.681,5.518 L2.681,5.518" fill="#000000"/>
  </g>
</svg>
