<?xml version="1.0" encoding="UTF-8"?>
<!DOCTYPE svg PUBLIC "-//W3C//DTD SVG 1.1//EN" "http://www.w3.org/Graphics/SVG/1.1/DTD/svg11.dtd">
<svg version="1.1" xmlns="http://www.w3.org/2000/svg" xmlns:xlink="http://www.w3.org/1999/xlink" x="0" y="0" width="1300" height="866" viewBox="0, 0, 1300, 866">



<style type="text/css" >
      
      <![CDATA[
    
        path.bolge1 {
          fill: #accef1;
          stroke: #accef1;
        }


  
   
      ]]>
    </style>


  <g id="Image">
    <g>
      <path class="bolge1" d="M472.771,541.5 L515.521,516.25 L579.521,557.25 L599.771,548 L603.021,523.895 L623.521,521.5 L682.521,480.75 L701.771,480 L742.271,507.5 L752.521,508 L763.021,503.75 L778.521,503.25 L790.771,516.25 L799.021,517 L830.271,494 L855.271,492.25 L885.771,513 L905.021,502.25 L930.521,501.25 L948.521,515.5 L956.271,515.25 L983.021,496.75 L1008.021,496.5 L1030.771,512.5 L1112.021,465.25 L1113.771,430.75 L1040.271,387.5 L567.021,379 L476.271,372 L495.271,449 L472.771,541.5 z" fill="#000000"/>
      <path lass="bolge1"  d="M472.771,541.5 L515.521,516.25 L579.521,557.25 L599.771,548 L603.021,523.895 L623.521,521.5 L682.521,480.75 L701.771,480 L742.271,507.5 L752.521,508 L763.021,503.75 L778.521,503.25 L790.771,516.25 L799.021,517 L830.271,494 L855.271,492.25 L885.771,513 L905.021,502.25 L930.521,501.25 L948.521,515.5 L956.271,515.25 L983.021,496.75 L1008.021,496.5 L1030.771,512.5 L1112.021,465.25 L1113.771,430.75 L1040.271,387.5 L567.021,379 L476.271,372 L495.271,449 L472.771,541.5 z" fill-opacity="0" stroke="#000000" stroke-width="1"/>
    </g>
    <path class="bolge1"  d="M538.746,388.509 L538.746,388.509" fill-opacity="0" stroke="#000000" stroke-width="10"/>
    <g>
      <g>
        <path class="bolge1"  d="M283.271,261.417 C402.564,261.417 499.271,348.945 499.271,456.917 C499.271,564.888 402.564,652.417 283.271,652.417 C163.977,652.417 67.271,564.888 67.271,456.917 C67.271,348.945 163.977,261.417 283.271,261.417 z M168.479,417.583 C146.019,417.583 127.812,435.193 127.812,456.917 C127.812,478.64 146.019,496.25 168.479,496.25 C190.939,496.25 209.146,478.64 209.146,456.917 C209.146,435.193 190.939,417.583 168.479,417.583 z" fill="#000000"/>
        <path class="bolge1"  d="M283.271,261.417 C402.564,261.417 499.271,348.945 499.271,456.917 C499.271,564.888 402.564,652.417 283.271,652.417 C163.977,652.417 67.271,564.888 67.271,456.917 C67.271,348.945 163.977,261.417 283.271,261.417 z M168.479,417.583 C146.019,417.583 127.812,435.193 127.812,456.917 C127.812,478.64 146.019,496.25 168.479,496.25 C190.939,496.25 209.146,478.64 209.146,456.917 C209.146,435.193 190.939,417.583 168.479,417.583 z" fill-opacity="0" stroke="#000000" stroke-width="1"/>
      </g>
      <g>
        <path class="bolge1"  d="M772.689,634.091 C703.746,474.131 736.446,261.169 872.099,91.392" fill-opacity="0" stroke="#000000" stroke-width="76"/>
        <path class="bolge1"  d="M734.424,663.07 L849.967,736.131 L810.954,605.112 z" fill="#000000" fill-opacity="1" stroke="#000000" stroke-width="76" stroke-opacity="1"/>
      </g>
      <g>
        <path class="bolge1"  d="M1160.1,262.245 C1217.959,418.18 1177.662,627.165 1041.168,797.994" fill-opacity="0" stroke="#000000" stroke-width="76"/>
        <path class="bolge1"  d="M1199.195,234.396 L1085.835,157.992 L1121.005,290.094 z" fill="#000000" fill-opacity="1" stroke="#000000" stroke-width="76" stroke-opacity="1"/>
      </g>
    </g>
  </g>
</svg>
