<?xml version="1.0" encoding="UTF-8"?>
<!DOCTYPE svg PUBLIC "-//W3C//DTD SVG 1.1//EN" "http://www.w3.org/Graphics/SVG/1.1/DTD/svg11.dtd">
<svg version="1.1" xmlns="http://www.w3.org/2000/svg" xmlns:xlink="http://www.w3.org/1999/xlink" x="0" y="0" width="1035" height="225" viewBox="0, 0, 1050, 225">


<style type="text/css" >
      
      <![CDATA[
    





      text.stortekst tspan{
          fill: #cedede;
          stroke: #cedede;
          fill: #444;
          stroke: #444;
             fill: #fff;
          stroke: #fff;
          
        }


        path.bolge1 {
        fill: #accef1;
          stroke: #accef1;
        }
        path.bolge2 {
          fill: #4f9dbc;
          stroke: #4f9dbc;
        }
 


    svg{
      /*background-color:#cedede;
      background-color:#aaa;*/
    }
   
      ]]>
    </style>




  <g id="Image">
    <text class="stortekst" transform="matrix(1, 0, 0, 1, 107.624, 61.108)">
      <tspan x="-115.124" y="52.5" font-family="HelveticaNeue" font-size="144" fill="#000000">BSI</tspan>
    </text>
    <text class="stortekst" transform="matrix(1, 0, 0, 1, 656.435, 61.108)">
      <tspan x="-384.548" y="52.5" font-family="HelveticaNeue" font-size="144" fill="#000000">OFFSHORE</tspan>
    </text>
    <path d="M1082,296 L1082,296" fill-opacity="0" stroke="#000000" stroke-width="28"/>
    <path d="M847.887,76.167 L847.887,76.167" fill-opacity="0" stroke="#000000" stroke-width="28"/>
    <!--
    <text class="litentekst" transform="matrix(1, 0, 0, 1, 640, 200.159)">
      <tspan x="-376.94" y="15.658" font-family="HelveticaNeue" font-size="48" fill="#000000">MARITIME INTERIOR SOLUTIONS</tspan>
    </text>
  -->
    <path class="bolge1" d="M40.745,136.619 L43.309,136.573 L48.404,136.488 L53.457,136.409 L58.469,136.337 L63.439,136.272 L68.37,136.213 L73.26,136.161 L78.111,136.115 L82.925,136.075 L87.699,136.042 L92.436,136.014 L97.136,135.993 L101.8,135.978 L106.427,135.969 L111.02,135.965 L115.577,135.967 L120.101,135.975 L124.589,135.988 L129.047,136.007 L133.471,136.031 L137.862,136.06 L142.222,136.094 L146.551,136.134 L150.85,136.179 L157.244,136.255 L165.667,136.373 L173.978,136.51 L182.182,136.665 L190.282,136.836 L198.284,137.024 L206.193,137.228 L214.012,137.448 L221.746,137.681 L229.399,137.928 L236.976,138.188 L244.481,138.461 L251.918,138.745 L259.292,139.04 L266.608,139.346 L273.869,139.661 L281.081,139.985 L288.248,140.317 L295.372,140.657 L302.461,141.003 L313.036,141.535 L327.048,142.261 L340.993,143.002 L354.906,143.753 L368.822,144.507 L382.777,145.261 L396.806,146.008 L407.399,146.56 L414.502,146.923 L421.643,147.281 L428.827,147.634 L436.057,147.98 L443.34,148.32 L450.677,148.652 L458.075,148.976 L465.538,149.291 L473.07,149.596 L480.676,149.891 L488.36,150.175 L496.125,150.447 L503.977,150.707 L511.92,150.954 L519.958,151.187 L528.095,151.406 L536.339,151.609 L540.501,151.705 L540.501,151.705 C540.502,151.705 540.503,151.705 540.505,151.705 L540.505,151.705 L543.96,151.783 L550.819,151.937 L557.601,152.089 L564.309,152.239 L570.941,152.388 L577.499,152.534 L583.984,152.679 L590.395,152.822 L596.737,152.962 L603.004,153.1 L609.203,153.237 L615.329,153.37 L621.388,153.502 L627.378,153.632 L633.299,153.759 L639.153,153.883 L644.94,154.005 L650.661,154.125 L656.316,154.242 L661.907,154.357 L667.433,154.469 L672.896,154.578 L678.296,154.685 L683.633,154.789 L688.909,154.89 L694.124,154.988 L699.279,155.083 L704.375,155.176 L709.411,155.265 L714.389,155.351 L719.31,155.435 L724.173,155.515 L728.98,155.592 L733.733,155.665 L738.429,155.736 L743.071,155.803 L747.659,155.867 L752.194,155.928 L756.679,155.985 L761.11,156.038 L765.49,156.088 L769.821,156.135 L774.1,156.177 L778.332,156.217 L782.515,156.252 L786.65,156.284 L790.738,156.312 L794.779,156.336 L798.776,156.356 L802.726,156.372 L806.631,156.384 L810.495,156.392 L814.314,156.397 L818.09,156.397 L821.825,156.392 L825.518,156.384 L829.172,156.371 L832.786,156.355 L836.36,156.333 L839.896,156.308 L843.393,156.277 L846.854,156.243 L850.278,156.204 L853.666,156.16 L857.018,156.112 L860.336,156.059 L863.621,156.001 L866.872,155.938 L870.09,155.871 L873.277,155.799 L876.432,155.722 L879.556,155.64 L884.186,155.508 L890.257,155.314 L896.219,155.099 L902.076,154.863 L907.832,154.606 L913.494,154.327 L919.065,154.026 L924.553,153.703 L929.961,153.356 L935.295,152.987 L940.56,152.594 L945.763,152.177 L950.905,151.736 L955.996,151.27 L961.037,150.779 L966.037,150.262 L970.999,149.72 L975.928,149.152 L980.831,148.557 L985.712,147.936 L990.575,147.287 L995.427,146.61 L1002.691,145.544 L1009.962,144.413 L1014.823,143.622 L1019.697,142.803 L1024.588,141.953 L1027.047,141.517 L1027.047,141.517 C1029.322,141.113 1032.177,138.509 1033.422,135.7 C1034.667,132.891 1033.833,130.94 1031.558,131.344 L1029.127,131.776 L1024.273,132.618 L1019.442,133.431 L1014.629,134.214 L1007.419,135.336 L1000.207,136.395 L995.396,137.066 L990.573,137.709 L985.733,138.326 L980.87,138.916 L975.98,139.48 L971.057,140.018 L966.096,140.53 L961.09,141.018 L956.037,141.48 L950.928,141.919 L945.762,142.333 L940.53,142.724 L935.228,143.091 L929.851,143.435 L924.393,143.757 L918.85,144.057 L913.216,144.334 L907.485,144.59 L901.653,144.825 L895.715,145.039 L889.662,145.233 L885.046,145.365 L881.932,145.446 L878.788,145.523 L875.611,145.595 L872.402,145.662 L869.161,145.724 L865.885,145.782 L862.576,145.835 L859.231,145.883 L855.852,145.927 L852.436,145.966 L848.983,146 L845.493,146.03 L841.964,146.056 L838.398,146.077 L834.791,146.094 L831.144,146.107 L827.457,146.115 L823.728,146.119 L819.957,146.119 L816.143,146.115 L812.287,146.107 L808.386,146.095 L804.44,146.078 L800.45,146.058 L796.413,146.034 L792.329,146.007 L788.199,145.975 L784.02,145.939 L779.793,145.9 L775.516,145.858 L771.19,145.811 L766.813,145.761 L762.385,145.708 L757.905,145.651 L753.373,145.59 L748.788,145.526 L744.148,145.459 L739.453,145.389 L734.705,145.315 L729.9,145.238 L725.039,145.158 L720.121,145.075 L715.145,144.988 L710.11,144.899 L705.017,144.807 L699.864,144.712 L694.65,144.613 L689.376,144.512 L684.039,144.409 L678.641,144.302 L673.18,144.193 L667.655,144.081 L662.066,143.966 L656.412,143.849 L650.691,143.729 L644.905,143.607 L639.052,143.482 L633.131,143.355 L627.144,143.226 L621.086,143.094 L614.958,142.96 L608.761,142.824 L602.492,142.686 L596.154,142.546 L589.742,142.403 L583.257,142.258 L576.699,142.112 L570.067,141.963 L563.36,141.813 L556.578,141.661 L549.719,141.507 L546.26,141.429 L546.263,141.429 L542.109,141.333 L533.878,141.13 L525.751,140.912 L517.723,140.679 L509.791,140.433 L501.949,140.173 L494.193,139.901 L486.52,139.618 L478.924,139.323 L471.401,139.018 L463.946,138.704 L456.554,138.38 L449.224,138.048 L441.949,137.709 L434.724,137.363 L427.545,137.01 L420.408,136.652 L413.311,136.289 L402.724,135.738 L388.699,134.991 L374.745,134.238 L360.828,133.483 L346.91,132.732 L332.959,131.991 L318.939,131.264 L308.357,130.732 L301.262,130.385 L294.129,130.045 L286.957,129.713 L279.737,129.388 L272.467,129.073 L265.143,128.767 L257.759,128.472 L250.312,128.187 L242.797,127.914 L235.21,127.654 L227.545,127.406 L219.801,127.172 L211.97,126.953 L204.05,126.749 L196.035,126.56 L187.921,126.388 L179.705,126.233 L171.382,126.096 L162.946,125.978 L156.545,125.902 L152.24,125.857 L147.903,125.817 L143.537,125.783 L139.137,125.753 L134.706,125.729 L130.244,125.711 L125.747,125.697 L121.218,125.69 L116.653,125.688 L112.054,125.691 L107.42,125.701 L102.748,125.716 L98.042,125.737 L93.298,125.764 L88.516,125.798 L83.697,125.838 L78.838,125.884 L73.941,125.936 L69.004,125.995 L64.027,126.06 L59.008,126.132 L53.948,126.211 L48.847,126.297 L46.28,126.342 C44.185,126.38 41.247,128.711 39.718,131.549 C38.19,134.387 38.649,136.656 40.745,136.619 L40.745,136.619" fill="#000000"/>
    <path class="bolge2" d="M5.473,146.594 L8.037,146.549 L13.132,146.463 L18.185,146.384 L23.196,146.312 L28.167,146.247 L33.098,146.188 L37.989,146.136 L42.84,146.09 L47.652,146.05 L52.427,146.017 L57.164,145.99 L61.864,145.968 L66.527,145.953 L71.155,145.944 L75.748,145.94 L80.305,145.942 L84.828,145.95 L89.318,145.963 L93.775,145.982 L98.198,146.006 L102.59,146.035 L106.951,146.07 L111.28,146.109 L115.579,146.154 L121.973,146.23 L130.395,146.348 L138.706,146.485 L146.91,146.64 L155.011,146.812 L163.013,147 L170.921,147.204 L178.74,147.423 L186.475,147.656 L194.127,147.903 L201.704,148.164 L209.208,148.436 L216.646,148.72 L224.02,149.016 L231.336,149.321 L238.597,149.636 L245.809,149.96 L252.976,150.292 L260.1,150.632 L267.189,150.979 L277.764,151.51 L291.776,152.236 L305.721,152.977 L319.634,153.728 L333.551,154.483 L347.505,155.236 L361.535,155.983 L372.127,156.535 L379.23,156.898 L386.371,157.256 L393.555,157.609 L400.785,157.956 L408.068,158.295 L415.406,158.627 L422.804,158.951 L430.267,159.266 L437.799,159.571 L445.404,159.866 L453.088,160.15 L460.853,160.423 L468.704,160.682 L476.648,160.929 L484.686,161.162 L492.824,161.381 L501.066,161.584 L505.229,161.68 L505.229,161.68 C505.23,161.68 505.231,161.68 505.232,161.68 L505.232,161.68 L508.688,161.758 L515.547,161.912 L522.33,162.064 L529.037,162.215 L535.669,162.363 L542.227,162.51 L548.711,162.654 L555.123,162.797 L561.464,162.937 L567.733,163.076 L573.93,163.212 L580.058,163.346 L586.116,163.477 L592.106,163.607 L598.027,163.734 L603.88,163.858 L609.668,163.981 L615.389,164.1 L621.044,164.218 L626.635,164.332 L632.161,164.444 L637.624,164.553 L643.024,164.66 L648.361,164.764 L653.638,164.865 L658.852,164.963 L664.007,165.058 L669.103,165.151 L674.139,165.24 L679.117,165.327 L684.037,165.41 L688.902,165.49 L693.708,165.567 L698.46,165.641 L703.157,165.711 L707.799,165.778 L712.388,165.842 L716.923,165.903 L721.407,165.96 L725.837,166.013 L730.218,166.063 L734.549,166.11 L738.829,166.153 L743.06,166.192 L747.242,166.227 L751.377,166.259 L755.466,166.287 L759.507,166.311 L763.503,166.331 L767.454,166.347 L771.36,166.36 L775.223,166.368 L779.042,166.372 L782.818,166.372 L786.554,166.368 L790.247,166.359 L793.9,166.347 L797.514,166.33 L801.088,166.308 L804.623,166.283 L808.121,166.253 L811.582,166.218 L815.006,166.179 L818.394,166.135 L821.746,166.087 L825.065,166.034 L828.349,165.976 L831.6,165.914 L834.818,165.846 L838.005,165.774 L841.16,165.697 L844.285,165.615 L848.914,165.483 L854.985,165.289 L860.948,165.074 L866.804,164.838 L872.561,164.581 L878.222,164.302 L883.793,164.001 L889.281,163.678 L894.689,163.332 L900.023,162.962 L905.289,162.569 L910.49,162.152 L915.633,161.711 L920.724,161.245 L925.765,160.754 L930.765,160.238 L935.727,159.696 L940.656,159.127 L945.559,158.532 L950.44,157.911 L955.304,157.262 L960.155,156.586 L967.419,155.519 L974.69,154.388 L979.552,153.597 L984.425,152.778 L989.317,151.929 L991.775,151.492 L991.775,151.492 C994.05,151.089 996.905,148.484 998.15,145.675 C999.396,142.866 998.561,140.916 996.286,141.319 L993.855,141.751 L989.002,142.593 L984.17,143.406 L979.357,144.189 L972.147,145.311 L964.936,146.37 L960.124,147.041 L955.301,147.684 L950.461,148.301 L945.599,148.891 L940.708,149.455 L935.785,149.993 L930.824,150.505 L925.818,150.993 L920.766,151.456 L915.657,151.894 L910.489,152.308 L905.258,152.699 L899.956,153.066 L894.578,153.411 L889.122,153.732 L883.578,154.032 L877.944,154.309 L872.213,154.565 L866.382,154.8 L860.442,155.014 L854.39,155.208 L849.775,155.34 L846.661,155.422 L843.516,155.498 L840.34,155.57 L837.13,155.637 L833.889,155.7 L830.613,155.757 L827.304,155.81 L823.959,155.858 L820.58,155.902 L817.164,155.941 L813.711,155.975 L810.221,156.006 L806.693,156.031 L803.125,156.052 L799.519,156.069 L795.873,156.082 L792.185,156.09 L788.457,156.094 L784.685,156.094 L780.871,156.09 L777.015,156.082 L773.114,156.07 L769.168,156.054 L765.178,156.034 L761.141,156.01 L757.058,155.982 L752.927,155.95 L748.748,155.915 L744.521,155.876 L740.244,155.833 L735.918,155.786 L731.542,155.736 L727.112,155.683 L722.634,155.626 L718.1,155.565 L713.516,155.502 L708.875,155.434 L704.182,155.364 L699.434,155.29 L694.628,155.213 L689.767,155.133 L684.849,155.05 L679.873,154.964 L674.838,154.874 L669.745,154.782 L664.592,154.687 L659.379,154.589 L654.104,154.488 L648.767,154.384 L643.369,154.277 L637.908,154.168 L632.383,154.056 L626.794,153.941 L621.14,153.824 L615.42,153.705 L609.634,153.582 L603.78,153.458 L597.859,153.331 L591.871,153.201 L585.813,153.07 L579.686,152.936 L573.489,152.8 L567.22,152.661 L560.881,152.521 L554.47,152.378 L547.985,152.234 L541.427,152.087 L534.795,151.939 L528.088,151.788 L521.306,151.636 L514.447,151.482 L510.988,151.404 L510.991,151.404 L506.836,151.309 L498.606,151.105 L490.479,150.887 L482.451,150.654 L474.519,150.408 L466.677,150.148 L458.922,149.877 L451.248,149.593 L443.652,149.298 L436.128,148.993 L428.674,148.679 L421.282,148.355 L413.952,148.024 L406.677,147.684 L399.451,147.338 L392.273,146.985 L385.137,146.627 L378.039,146.265 L367.452,145.713 L353.428,144.966 L339.473,144.213 L325.555,143.458 L311.638,142.707 L297.687,141.966 L283.667,141.239 L273.085,140.708 L265.991,140.361 L258.858,140.021 L251.685,139.688 L244.465,139.364 L237.195,139.048 L229.87,138.742 L222.487,138.447 L215.04,138.162 L207.525,137.889 L199.938,137.629 L192.273,137.381 L184.529,137.148 L176.697,136.928 L168.778,136.724 L160.763,136.535 L152.649,136.363 L144.433,136.209 L136.109,136.072 L127.675,135.953 L121.272,135.877 L116.968,135.832 L112.631,135.793 L108.264,135.758 L103.865,135.729 L99.434,135.705 L94.972,135.686 L90.475,135.673 L85.945,135.665 L81.381,135.663 L76.783,135.666 L72.148,135.676 L67.477,135.691 L62.77,135.712 L58.025,135.74 L53.244,135.773 L48.425,135.813 L43.567,135.859 L38.669,135.911 L33.732,135.97 L28.755,136.035 L23.736,136.108 L18.677,136.186 L13.575,136.272 L11.008,136.317 C8.913,136.355 5.975,138.686 4.447,141.524 C2.918,144.362 3.377,146.632 5.473,146.594 L5.473,146.594" fill="#000000"/>
  </g>
</svg>
