<?xml version="1.0" encoding="UTF-8"?>
<!DOCTYPE svg PUBLIC "-//W3C//DTD SVG 1.1//EN" "http://www.w3.org/Graphics/SVG/1.1/DTD/svg11.dtd">
<svg version="1.1" xmlns="http://www.w3.org/2000/svg" xmlns:xlink="http://www.w3.org/1999/xlink" x="0" y="0" 
width="19" height="30" 
viewBox="0, 0, 750, 1200">


<style type="text/css" >
      
      <![CDATA[
    



        text.litentekst tspan{
          fill: #4f9dbc;
          stroke: #4f9dbc;

        }


      text.stortekst tspan{
          fill: #cedede;
          stroke: #cedede;
          fill: #444;
          stroke: #444;
          
        }


        path.midtseil {
        fill: #69b658;
          stroke: #69b658;
        }
        path.toppseil {
          fill: #85afcc;
          stroke: #85afcc;
        }

             path.bunnseil {
          fill: #003d7a;
          stroke: #003d7a;
        }
 


    svg{
      /*background-color:#cedede;
      background-color:#aaa;*/
    }
   
      ]]>
    </style>

  <g id="vektorer">
    <g>
      <path class="toppseil"  d="M206.391,202.031 C206.391,202.031 275.019,175.424 353.224,119.887 C471.714,35.742 492.941,2.871 492.941,2.871 C492.941,2.871 523.041,29.347 558.202,75.408 C591.261,118.715 607.761,146.547 607.761,146.547 C607.761,146.547 534.57,252.496 454.098,329.001 C373.625,405.506 303.17,440.791 303.17,440.791 C303.17,440.791 292.705,386.414 267.085,316.534 C241.465,246.653 206.391,202.031 206.391,202.031 z" fill="#5546AC"/>
      <path class="toppseil"  d="M206.391,202.031 C206.391,202.031 275.019,175.424 353.224,119.887 C471.714,35.742 492.941,2.871 492.941,2.871 C492.941,2.871 523.041,29.347 558.202,75.408 C591.261,118.715 607.761,146.547 607.761,146.547 C607.761,146.547 534.57,252.496 454.098,329.001 C373.625,405.506 303.17,440.791 303.17,440.791 C303.17,440.791 292.705,386.414 267.085,316.534 C241.465,246.653 206.391,202.031 206.391,202.031 z" fill-opacity="0" stroke="#FFFFFF" stroke-width="1"/>
    </g>
    <g>
      <path class="midtseil"  d="M308.196,461.402 C308.196,461.402 408.945,402.78 493.656,323.282 C575.214,246.742 622.093,167.75 622.093,167.75 C622.093,167.75 624.604,167.767 643.598,206.591 C662.592,245.414 679.547,298.525 679.547,298.525 C679.547,298.525 640.799,425.54 549.936,540.073 C457.621,656.436 305.642,753.23 305.642,753.23 C305.642,753.23 323.163,664.984 322.671,586.215 C322.102,495.109 308.196,461.402 308.196,461.402 z" fill="#4E4B5D"/>
      <path class="midtseil"  d="M308.196,461.402 C308.196,461.402 408.945,402.78 493.656,323.282 C575.214,246.742 622.093,167.75 622.093,167.75 C622.093,167.75 624.604,167.767 643.598,206.591 C662.592,245.414 679.547,298.525 679.547,298.525 C679.547,298.525 640.799,425.54 549.936,540.073 C457.621,656.436 305.642,753.23 305.642,753.23 C305.642,753.23 323.163,664.984 322.671,586.215 C322.102,495.109 308.196,461.402 308.196,461.402 z" fill-opacity="0" stroke="#FFFFFF" stroke-width="1"/>
    </g>
    <g>
      <path class="bunnseil"  d="M295.606,787.891 C295.606,787.891 382.741,740.427 515.496,614.522 C648.25,488.616 688.527,349.639 688.527,349.639 C688.527,349.639 742.319,631.297 568.166,838.904 C509.934,908.322 471.435,954.338 362.234,1035.141 C204.833,1151.611 43.394,1192.725 43.394,1192.725 C43.394,1192.725 159.517,1092.795 212.178,994.833 C293.939,842.737 295.606,787.891 295.606,787.891 z" fill="#000000"/>
      <path class="bunnseil"  d="M295.606,787.891 C295.606,787.891 382.741,740.427 515.496,614.522 C648.25,488.616 688.527,349.639 688.527,349.639 C688.527,349.639 742.319,631.297 568.166,838.904 C509.934,908.322 471.435,954.338 362.234,1035.141 C204.833,1151.611 43.394,1192.725 43.394,1192.725 C43.394,1192.725 159.517,1092.795 212.178,994.833 C293.939,842.737 295.606,787.891 295.606,787.891 z" fill-opacity="0" stroke="#FFFFFF" stroke-width="1"/>
    </g>
  </g>
</svg>
